<svg width="24" height="24" viewBox="0 0 24 24" fill="none" xmlns="http://www.w3.org/2000/svg">
<path d="M19.25 12C19.25 16.0041 16.0041 19.25 12 19.25V20.75C16.8325 20.75 20.75 16.8325 20.75 12H19.25ZM12 19.25C7.99594 19.25 4.75 16.0041 4.75 12H3.25C3.25 16.8325 7.16751 20.75 12 20.75V19.25ZM4.75 12C4.75 7.99594 7.99594 4.75 12 4.75V3.25C7.16751 3.25 3.25 7.16751 3.25 12H4.75ZM12 4.75C16.0041 4.75 19.25 7.99594 19.25 12H20.75C20.75 7.16751 16.8325 3.25 12 3.25V4.75Z" fill="black"/>
<path d="M11.5303 8.46967C11.2374 8.17678 10.7626 8.17678 10.4697 8.46967C10.1768 8.76256 10.1768 9.23744 10.4697 9.53033L11.5303 8.46967ZM14 12L14.5303 12.5303C14.671 12.3897 14.75 12.1989 14.75 12C14.75 11.8011 14.671 11.6103 14.5303 11.4697L14 12ZM10.4697 14.4697C10.1768 14.7626 10.1768 15.2374 10.4697 15.5303C10.7626 15.8232 11.2374 15.8232 11.5303 15.5303L10.4697 14.4697ZM10.4697 9.53033L13.4697 12.5303L14.5303 11.4697L11.5303 8.46967L10.4697 9.53033ZM13.4697 11.4697L10.4697 14.4697L11.5303 15.5303L14.5303 12.5303L13.4697 11.4697Z" fill="black"/>
</svg>
