<svg width="40" height="32" viewBox="0 0 40 32" fill="none" xmlns="http://www.w3.org/2000/svg">
<path d="M5 12.2925C5.20947 13.789 6.06034 15.2121 6.85326 16.4256C7.85211 17.9542 8.98151 19.3714 10.0221 20.8651C11.0564 22.3495 12.0264 23.9287 12.9001 25.5292C13.1325 25.955 13.2999 26.437 13.5705 26.8366C13.6074 26.8911 13.7438 27 13.6812 27C13.6137 27 13.7736 26.8925 13.8077 26.8298C14.135 26.2288 14.5578 25.6652 14.9304 25.0969C17.4125 21.3116 20.0721 17.7149 23.2479 14.5701C25.0412 12.7944 26.8921 11.0686 28.8393 9.49056C30.0944 8.47343 31.4032 7.54133 32.6945 6.5797C33.4405 6.02417 34.1916 5.43512 35 5" stroke="#9BABFF" stroke-width="10" stroke-linecap="round"/>
</svg>
