<svg width="19" height="16" viewBox="0 0 19 16" fill="none" xmlns="http://www.w3.org/2000/svg">
<path d="M12.0044 0.307625C11.622 -0.0908693 10.989 -0.103926 10.5905 0.278462C10.192 0.66085 10.1789 1.29388 10.5613 1.69237L12.0044 0.307625ZM17.9999 8L18.7215 8.69237C19.0928 8.30545 19.0928 7.69455 18.7215 7.30763L17.9999 8ZM10.5613 14.3076C10.1789 14.7061 10.192 15.3391 10.5905 15.7215C10.989 16.1039 11.622 16.0909 12.0044 15.6924L10.5613 14.3076ZM16.7331 9.03174C17.2853 9.03174 17.7331 8.58402 17.7331 8.03174C17.7331 7.47945 17.2853 7.03174 16.7331 7.03174V9.03174ZM1 7.03174C0.447715 7.03174 0 7.47945 0 8.03174C0 8.58402 0.447715 9.03174 1 9.03174V7.03174ZM10.5613 1.69237L17.2784 8.69237L18.7215 7.30763L12.0044 0.307625L10.5613 1.69237ZM17.2784 7.30763L10.5613 14.3076L12.0044 15.6924L18.7215 8.69237L17.2784 7.30763ZM16.7331 7.03174H1V9.03174H16.7331V7.03174Z" fill="black"/>
</svg>
