<svg width="40" height="30" viewBox="0 0 40 30" fill="none" xmlns="http://www.w3.org/2000/svg">
<path d="M39.6016 7C39.6016 7 39.2109 4.24219 38.0078 3.03125C36.4844 1.4375 34.7812 1.42969 34 1.33594C28.4063 0.929687 20.0078 0.929688 20.0078 0.929688H19.9922C19.9922 0.929688 11.5938 0.929687 6 1.33594C5.21875 1.42969 3.51562 1.4375 1.99219 3.03125C0.789063 4.24219 0.40625 7 0.40625 7C0.40625 7 0 10.2422 0 13.4766V16.5078C0 19.7422 0.398437 22.9844 0.398437 22.9844C0.398437 22.9844 0.789062 25.7422 1.98437 26.9531C3.50781 28.5469 5.50781 28.4922 6.39844 28.6641C9.60156 28.9688 20 29.0625 20 29.0625C20 29.0625 28.4063 29.0469 34 28.6484C34.7812 28.5547 36.4844 28.5469 38.0078 26.9531C39.2109 25.7422 39.6016 22.9844 39.6016 22.9844C39.6016 22.9844 40 19.75 40 16.5078V13.4766C40 10.2422 39.6016 7 39.6016 7ZM15.8672 20.1875V8.94531L26.6719 14.5859L15.8672 20.1875Z" fill="#6E7191"/>
</svg>
