<svg width="90" height="90" viewBox="0 0 90 90" fill="none" xmlns="http://www.w3.org/2000/svg">
<rect x="2" y="2" width="12.2406" height="12.2406" stroke="black" stroke-width="4"/>
<rect x="4.36832" y="4.36768" width="7.50376" height="7.50376" fill="#4E4B66" stroke="black" stroke-width="4"/>
<rect x="78.1278" y="78.1282" width="7.50376" height="7.50376" fill="#4E4B66" stroke="black" stroke-width="4"/>
<rect x="6.51316" y="79.934" width="3.55263" height="3.55263" fill="#4E4B66" stroke="black" stroke-width="3.55263"/>
<rect x="77.1428" y="3.38306" width="9.81203" height="9.81203" fill="#4E4B66"/>
<rect x="2" y="75.759" width="12.2406" height="12.2406" stroke="black" stroke-width="4"/>
<rect x="75.7594" y="75.759" width="12.2406" height="12.2406" stroke="black" stroke-width="4"/>
<rect x="75.7594" y="2" width="12.2406" height="12.2406" stroke="black" stroke-width="4"/>
<circle cx="19.7932" cy="4.90527" r="2.53759" fill="black"/>
<circle cx="25.8835" cy="4.90527" r="2.53759" fill="black"/>
<circle cx="31.9737" cy="4.90527" r="2.53759" fill="black"/>
<circle cx="38.0638" cy="4.90527" r="2.53759" fill="black"/>
<circle cx="44.1541" cy="4.90527" r="2.53759" fill="black"/>
<circle cx="50.2444" cy="4.90527" r="2.53759" fill="black"/>
<circle cx="56.3344" cy="4.90527" r="2.53759" fill="black"/>
<circle cx="62.4247" cy="4.90527" r="2.53759" fill="black"/>
<circle cx="68.515" cy="11.3347" r="2.53759" fill="black"/>
<circle cx="68.515" cy="17.7629" r="2.53759" fill="black"/>
<circle cx="74.6053" cy="20.4702" r="2.53759" fill="black"/>
<circle cx="81.0338" cy="20.4702" r="2.53759" fill="black"/>
<circle cx="85.0939" cy="25.5459" r="2.53759" fill="black"/>
<circle cx="85.0939" cy="32.3123" r="2.53759" fill="black"/>
<circle cx="85.4325" cy="39.0798" r="2.53759" fill="black"/>
<circle cx="85.4325" cy="52.6123" r="2.53759" fill="black"/>
<circle cx="85.4324" cy="59.3799" r="2.53759" fill="black"/>
<circle cx="85.4325" cy="66.146" r="2.53759" fill="black"/>
<circle cx="81.0339" cy="70.5459" r="2.53759" fill="black"/>
<circle cx="74.6053" cy="70.5459" r="2.53759" fill="black"/>
<circle cx="68.515" cy="76.2966" r="2.53759" fill="black"/>
<circle cx="68.515" cy="82.7248" r="2.53759" fill="black"/>
<circle cx="63.4399" cy="85.4333" r="2.53759" fill="black"/>
<circle cx="56.3344" cy="85.4333" r="2.53759" fill="black"/>
<circle cx="42.1242" cy="85.4333" r="2.53759" fill="black"/>
<circle cx="35.0187" cy="85.4333" r="2.53759" fill="black"/>
<circle cx="27.9136" cy="85.4333" r="2.53759" fill="black"/>
<circle cx="20.8082" cy="85.4333" r="2.53759" fill="black"/>
<circle cx="20.8082" cy="78.6658" r="2.53759" fill="black"/>
<circle cx="20.8082" cy="71.8982" r="2.53759" fill="black"/>
<circle cx="14.3797" cy="69.529" r="2.53759" fill="black"/>
<circle cx="7.27438" cy="70.5459" r="2.53759" fill="black"/>
<circle cx="4.56768" cy="64.7939" r="2.53759" fill="black"/>
<circle cx="4.56762" cy="47.5376" r="2.53759" fill="black"/>
<circle cx="4.56762" cy="41.7856" r="2.53759" fill="black"/>
<circle cx="4.56768" cy="36.0334" r="2.53759" fill="black"/>
<circle cx="4.56768" cy="30.2812" r="2.53759" fill="black"/>
<circle cx="4.56768" cy="24.5293" r="2.53759" fill="black"/>
<circle cx="10.6578" cy="30.2812" r="2.53759" fill="black"/>
<circle cx="10.6579" cy="41.7856" r="2.53759" fill="black"/>
<circle cx="10.6579" cy="47.5376" r="2.53759" fill="black"/>
<circle cx="10.6579" cy="53.2895" r="2.53759" fill="black"/>
<circle cx="10.6578" cy="59.0417" r="2.53759" fill="black"/>
<circle cx="10.6578" cy="64.7939" r="2.53759" fill="black"/>
<circle cx="16.7482" cy="24.5293" r="2.53759" fill="black"/>
<circle cx="16.7482" cy="36.0334" r="2.53759" fill="black"/>
<circle cx="16.7482" cy="41.7856" r="2.53759" fill="black"/>
<circle cx="16.7482" cy="47.5376" r="2.53759" fill="black"/>
<circle cx="16.7482" cy="53.2895" r="2.53759" fill="black"/>
<circle cx="16.7482" cy="59.0417" r="2.53759" fill="black"/>
<circle cx="16.7482" cy="64.7939" r="2.53759" fill="black"/>
<circle cx="22.8385" cy="24.5293" r="2.53759" fill="black"/>
<circle cx="22.8385" cy="30.2812" r="2.53759" fill="black"/>
<circle cx="22.8385" cy="36.0334" r="2.53759" fill="black"/>
<circle cx="22.8384" cy="41.7856" r="2.53759" fill="black"/>
<circle cx="22.8384" cy="47.5376" r="2.53759" fill="black"/>
<circle cx="22.8384" cy="53.2895" r="2.53759" fill="black"/>
<circle cx="22.8384" cy="18.7786" r="2.53759" fill="black"/>
<circle cx="28.9284" cy="24.5293" r="2.53759" fill="black"/>
<circle cx="28.9284" cy="30.2812" r="2.53759" fill="black"/>
<circle cx="28.9284" cy="36.0334" r="2.53759" fill="black"/>
<circle cx="28.9285" cy="47.5376" r="2.53759" fill="black"/>
<circle cx="28.9284" cy="59.0417" r="2.53759" fill="black"/>
<circle cx="28.9284" cy="64.7939" r="2.53759" fill="black"/>
<circle cx="28.9284" cy="70.5459" r="2.53759" fill="black"/>
<circle cx="28.9285" cy="76.2966" r="2.53759" fill="black"/>
<circle cx="31.9737" cy="11.3347" r="2.53759" fill="black"/>
<circle cx="35.0187" cy="24.5293" r="2.53759" fill="black"/>
<circle cx="35.0187" cy="30.2812" r="2.53759" fill="black"/>
<circle cx="35.0187" cy="36.0334" r="2.53759" fill="black"/>
<circle cx="35.0187" cy="41.7856" r="2.53759" fill="black"/>
<circle cx="35.0187" cy="47.5376" r="2.53759" fill="black"/>
<circle cx="35.0187" cy="53.2895" r="2.53759" fill="black"/>
<circle cx="35.0187" cy="59.0417" r="2.53759" fill="black"/>
<circle cx="35.0187" cy="64.7939" r="2.53759" fill="black"/>
<circle cx="35.0187" cy="70.5459" r="2.53759" fill="black"/>
<circle cx="35.0187" cy="76.2966" r="2.53759" fill="black"/>
<circle cx="35.0187" cy="18.7786" r="2.53759" fill="black"/>
<circle cx="38.0638" cy="11.3347" r="2.53759" fill="black"/>
<circle cx="41.1091" cy="24.5293" r="2.53759" fill="black"/>
<circle cx="41.1091" cy="36.0334" r="2.53759" fill="black"/>
<circle cx="41.109" cy="41.7856" r="2.53759" fill="black"/>
<circle cx="41.109" cy="47.5376" r="2.53759" fill="black"/>
<circle cx="41.109" cy="53.2895" r="2.53759" fill="black"/>
<circle cx="41.1091" cy="64.7939" r="2.53759" fill="black"/>
<circle cx="41.1091" cy="70.5459" r="2.53759" fill="black"/>
<circle cx="41.109" cy="76.2966" r="2.53759" fill="black"/>
<circle cx="41.109" cy="18.7786" r="2.53759" fill="black"/>
<circle cx="44.1541" cy="11.3347" r="2.53759" fill="black"/>
<circle cx="47.1992" cy="24.5293" r="2.53759" fill="black"/>
<circle cx="47.1992" cy="30.2812" r="2.53759" fill="black"/>
<circle cx="47.1992" cy="36.0334" r="2.53759" fill="black"/>
<circle cx="47.1993" cy="41.7856" r="2.53759" fill="black"/>
<circle cx="47.1993" cy="47.5376" r="2.53759" fill="black"/>
<circle cx="47.1993" cy="53.2895" r="2.53759" fill="black"/>
<circle cx="47.1992" cy="59.0417" r="2.53759" fill="black"/>
<circle cx="47.1992" cy="64.7939" r="2.53759" fill="black"/>
<circle cx="47.1993" cy="18.7786" r="2.53759" fill="black"/>
<circle cx="50.2444" cy="11.3347" r="2.53759" fill="black"/>
<circle cx="53.2895" cy="24.5293" r="2.53759" fill="black"/>
<circle cx="53.2895" cy="36.0334" r="2.53759" fill="black"/>
<circle cx="53.2895" cy="41.7856" r="2.53759" fill="black"/>
<circle cx="53.2895" cy="47.5376" r="2.53759" fill="black"/>
<circle cx="53.2895" cy="70.5459" r="2.53759" fill="black"/>
<circle cx="53.2895" cy="76.2966" r="2.53759" fill="black"/>
<circle cx="59.3797" cy="24.5293" r="2.53759" fill="black"/>
<circle cx="59.3797" cy="30.2812" r="2.53759" fill="black"/>
<circle cx="59.3797" cy="36.0334" r="2.53759" fill="black"/>
<circle cx="59.3796" cy="47.5376" r="2.53759" fill="black"/>
<circle cx="59.3796" cy="53.2895" r="2.53759" fill="black"/>
<circle cx="59.3797" cy="59.0417" r="2.53759" fill="black"/>
<circle cx="59.3797" cy="64.7939" r="2.53759" fill="black"/>
<circle cx="59.3797" cy="70.5459" r="2.53759" fill="black"/>
<circle cx="59.3796" cy="76.2966" r="2.53759" fill="black"/>
<circle cx="59.3796" cy="18.7786" r="2.53759" fill="black"/>
<circle cx="62.4247" cy="11.3347" r="2.53759" fill="black"/>
<circle cx="65.4698" cy="24.5293" r="2.53759" fill="black"/>
<circle cx="65.4698" cy="30.2812" r="2.53759" fill="black"/>
<circle cx="71.2219" cy="36.0334" r="2.53759" fill="black"/>
<circle cx="76.9737" cy="36.0334" r="2.53759" fill="black"/>
<circle cx="65.4699" cy="41.7856" r="2.53759" fill="black"/>
<circle cx="71.2219" cy="41.7856" r="2.53759" fill="black"/>
<circle cx="76.9736" cy="41.7856" r="2.53759" fill="black"/>
<circle cx="65.4699" cy="47.5376" r="2.53759" fill="black"/>
<circle cx="71.2219" cy="47.5376" r="2.53759" fill="black"/>
<circle cx="76.9736" cy="47.5376" r="2.53759" fill="black"/>
<circle cx="65.4699" cy="53.2895" r="2.53759" fill="black"/>
<circle cx="71.2219" cy="53.2895" r="2.53759" fill="black"/>
<circle cx="76.9736" cy="53.2895" r="2.53759" fill="black"/>
<circle cx="65.4698" cy="59.0417" r="2.53759" fill="black"/>
<circle cx="71.2219" cy="59.0417" r="2.53759" fill="black"/>
<circle cx="65.4698" cy="64.7939" r="2.53759" fill="black"/>
<circle cx="71.2219" cy="64.7939" r="2.53759" fill="black"/>
<circle cx="76.9737" cy="64.7939" r="2.53759" fill="black"/>
<circle cx="65.4698" cy="70.5459" r="2.53759" fill="black"/>
<circle cx="79.0038" cy="29.2671" r="2.53759" fill="black"/>
<circle cx="4.56762" cy="18.7786" r="2.53759" fill="black"/>
<circle cx="10.6579" cy="18.7786" r="2.53759" fill="black"/>
<circle cx="16.7482" cy="18.7786" r="2.53759" fill="black"/>
<circle cx="19.7932" cy="11.3347" r="2.53759" fill="black"/>
<circle cx="85.4324" cy="45.8459" r="2.53759" fill="black"/>
</svg>
